mtllib tree.mtl
g Deciduous_tree_3_v
v 10.696953 0.002083 2.377500
v 10.695830 0.001865 2.372612
v 10.696568 0.000519 2.374954
v 10.699979 0.003485 2.374954
v 10.699916 0.001550 2.371894
v 10.698749 0.004403 2.372612
v 10.698727 0.001886 2.370188
v 10.697717 0.004302 2.371894
v 10.696010 0.003389 2.374954
v 10.698736 0.001469 2.377500
v 10.699487 0.000606 2.372612
v 10.700284 0.001918 2.374954
v 10.697392 0.000463 2.371636
v 10.698376 0.003321 2.377500
v 10.697214 0.004436 2.374954
v 10.697217 0.002405 2.370188
v 10.699365 0.002553 2.377213
v 10.698077 -0.000000 2.374954
v 10.698521 0.002286 2.369401
v 10.698349 0.002347 2.367499
v 10.698318 0.002759 2.369406
v 10.698007 0.002941 2.367499
v 10.697808 0.002820 2.369409
v 10.697321 0.002941 2.367499
v 10.697499 0.002409 2.369407
v 10.696979 0.002347 2.367499
v 10.697321 0.001754 2.367499
v 10.697701 0.001936 2.369402
v 10.698007 0.001754 2.367499
v 10.698213 0.001875 2.369399
v 10.698467 0.002464 2.371282
v 10.698400 0.002114 2.371282
v 10.698197 0.002697 2.371282
v 10.697861 0.002581 2.371282
v 10.697793 0.002231 2.371282
v 10.698063 0.001998 2.371282
vt -0.230000 0.398300
vt -0.471700 0.816900
vt -0.907800 0.337100
vt 0.745800 -0.617600
vt -0.035600 -0.858300
vt 0.943300 0.000000
vt -0.035600 -0.858300
vt -0.065200 -0.337100
vt 0.761100 0.398300
vt 0.161900 0.954700
vt 0.761100 0.398300
vt -0.471700 0.816900
vt -0.230000 -0.398300
vt -0.471700 -0.816900
vt 0.161900 -0.954700
vt -0.907800 0.337100
vt -0.471700 0.816900
vt -0.816900 0.000000
vt 0.460000 0.000000
vt 0.943300 0.000000
vt 0.745800 0.617600
vt 0.460000 0.000000
vt -0.230000 0.398300
vt -0.230000 -0.398300
vt 0.761100 0.398300
vt -0.065200 0.337100
vt -0.471700 0.816900
vt -0.065200 0.337100
vt -0.816900 0.000000
vt -0.471700 0.816900
vt -0.230000 -0.398300
vt 0.288800 -0.500300
vt 0.460000 0.000000
vt 0.460000 0.000000
vt 0.745800 -0.617600
vt 0.943300 0.000000
vt -0.230000 -0.398300
vt -0.907800 -0.337100
vt -0.471700 -0.816900
vt -0.230000 0.398300
vt -0.907800 0.337100
vt -0.230000 -0.398300
vt 0.460000 0.000000
vt 0.745800 0.617600
vt -0.230000 0.398300
vt -0.230000 0.398300
vt 0.161900 0.954700
vt -0.471700 0.816900
vt -0.471700 -0.816900
vt -0.035600 -0.858300
vt 0.161900 -0.954700
vt -0.035600 -0.858300
vt -0.471700 -0.816900
vt -0.065200 -0.337100
vt 0.943300 0.000000
vt -0.035600 -0.858300
vt 0.761100 0.398300
vt 0.943300 0.000000
vt 0.761100 0.398300
vt 0.745800 0.617600
vt -0.907800 -0.337100
vt -0.816900 0.000000
vt -0.471700 -0.816900
vt -0.065200 -0.337100
vt -0.471700 -0.816900
vt -0.816900 0.000000
vt 0.161900 -0.954700
vt -0.035600 -0.858300
vt 0.745800 -0.617600
vt 0.288800 -0.500300
vt 0.745800 -0.617600
vt 0.460000 0.000000
vt -0.907800 -0.337100
vt -0.907800 0.337100
vt -0.816900 0.000000
vt -0.907800 -0.337100
vt 0.761100 0.398300
vt -0.065200 -0.337100
vt -0.065200 0.337100
vt -0.065200 -0.337100
vt -0.816900 0.000000
vt -0.065200 0.337100
vt 0.161900 0.954700
vt 0.745800 0.617600
vt 0.761100 0.398300
vt 0.161900 0.954700
vt -0.230000 -0.398300
vt 0.161900 -0.954700
vt 0.288800 -0.500300
vt 0.288800 -0.500300
vt 0.161900 -0.954700
vt 0.745800 -0.617600
vt 0.750000 0.586600
vt 0.750000 0.000000
vt 0.916700 0.586600
vt 0.916700 0.000000
vt 0.916700 0.586600
vt 0.916700 0.000000
vt 1.083300 0.586600
vt 1.083300 0.000000
vt 0.083300 0.586600
vt 0.083300 0.000000
vt 0.250000 0.586600
vt 0.250000 0.000000
vt 0.250000 0.586600
vt 0.250000 0.000000
vt 0.416700 0.000000
vt 0.416700 0.586600
vt 0.416700 0.000000
vt 0.583300 0.000000
vt 0.416700 0.586600
vt 0.583300 0.586600
vt 0.583300 0.000000
vt 0.750000 0.000000
vt 0.583300 0.586600
vt 0.750000 0.586600
vt 0.916700 0.586600
vt 0.916700 1.000000
vt 0.750000 0.586600
vt 0.750000 1.000000
vt 1.083300 0.586600
vt 1.083300 1.000000
vt 0.916700 0.586600
vt 0.916700 1.000000
vt 0.250000 0.586600
vt 0.250000 1.000000
vt 0.083300 0.586600
vt 0.083300 1.000000
vt 0.416700 0.586600
vt 0.416700 1.000000
vt 0.250000 0.586600
vt 0.250000 1.000000
vt 0.416700 0.586600
vt 0.583300 0.586600
vt 0.583300 1.000000
vt 0.416700 1.000000
vt 0.583300 0.586600
vt 0.750000 0.586600
vt 0.750000 1.000000
vt 0.583300 1.000000
vn -0.002209 -0.000305 0.000880
vn -0.002209 -0.000305 0.000880
vn -0.002209 -0.000305 0.000880
vn 0.001920 0.000946 -0.001078
vn 0.001920 0.000946 -0.001078
vn 0.001920 0.000946 -0.001078
vn 0.001525 0.001219 -0.001391
vn 0.001525 0.001219 -0.001391
vn 0.001525 0.001219 -0.001391
vn -0.001780 0.001190 -0.001078
vn -0.001780 0.001190 -0.001078
vn -0.001780 0.001190 -0.001078
vn 0.001368 -0.001760 0.000880
vn 0.001368 -0.001760 0.000880
vn 0.001368 -0.001760 0.000880
vn -0.001669 -0.001590 -0.000655
vn -0.001669 -0.001590 -0.000655
vn -0.001669 -0.001590 -0.000655
vn 0.000840 0.002065 0.000880
vn 0.000840 0.002065 0.000880
vn 0.000840 0.002065 0.000880
vn 0.000000 0.000000 0.002401
vn 0.000000 0.000000 0.002401
vn 0.000000 0.000000 0.002401
vn -0.001720 0.001115 -0.001243
vn -0.001720 0.001115 -0.001243
vn -0.001720 0.001115 -0.001243
vn -0.001426 -0.000884 -0.001711
vn -0.001426 -0.000884 -0.001711
vn -0.001426 -0.000884 -0.001711
vn 0.000475 0.000092 0.002348
vn 0.000475 0.000092 0.002348
vn 0.000475 0.000092 0.002348
vn 0.000608 0.002145 0.000880
vn 0.000608 0.002145 0.000880
vn 0.000608 0.002145 0.000880
vn 0.001553 -0.001599 0.000880
vn 0.001553 -0.001599 0.000880
vn 0.001553 -0.001599 0.000880
vn -0.000534 -0.001552 0.001747
vn -0.000534 -0.001552 0.001747
vn -0.000534 -0.001552 0.001747
vn -0.001077 0.001239 0.001747
vn -0.001077 0.001239 0.001747
vn -0.001077 0.001239 0.001747
vn -0.002162 -0.000546 0.000880
vn -0.002162 -0.000546 0.000880
vn -0.002162 -0.000546 0.000880
vn 0.002136 -0.001067 -0.000217
vn 0.002136 -0.001067 -0.000217
vn 0.002136 -0.001067 -0.000217
vn 0.001097 -0.001268 -0.001713
vn 0.001097 -0.001268 -0.001713
vn 0.001097 -0.001268 -0.001713
vn 0.000822 0.000657 -0.002154
vn 0.000822 0.000657 -0.002154
vn 0.000822 0.000657 -0.002154
vn -0.000144 0.002383 -0.000217
vn -0.000144 0.002383 -0.000217
vn -0.000144 0.002383 -0.000217
vn 0.000337 -0.002281 -0.000655
vn 0.000337 -0.002281 -0.000655
vn 0.000337 -0.002281 -0.000655
vn 0.000580 -0.001575 -0.001711
vn 0.000580 -0.001575 -0.001711
vn 0.000580 -0.001575 -0.001711
vn 0.002289 0.000445 -0.000556
vn 0.002289 0.000445 -0.000556
vn 0.002289 0.000445 -0.000556
vn 0.001293 0.001328 0.001520
vn 0.001293 0.001328 0.001520
vn 0.001293 0.001328 0.001520
vn -0.000534 -0.001552 0.001747
vn -0.000775 -0.002253 -0.000261
vn -0.000775 -0.002253 -0.000261
vn -0.000775 -0.002253 -0.000261
vn 0.000358 0.001040 -0.002130
vn 0.000358 0.001040 -0.002130
vn 0.000358 0.001040 -0.002130
vn -0.000338 -0.000984 -0.002160
vn -0.000338 -0.000984 -0.002160
vn -0.000338 -0.000984 -0.002160
vn -0.001077 0.001239 0.001747
vn -0.001530 0.001760 -0.000556
vn -0.001530 0.001760 -0.000556
vn -0.001530 0.001760 -0.000556
vn 0.001697 -0.000746 0.001520
vn 0.001697 -0.000746 0.001520
vn 0.001697 -0.000746 0.001520
vn 0.002032 0.000395 0.001209
vn 0.002032 0.000395 0.001209
vn 0.002032 0.000395 0.001209
vn 0.002113 0.001080 -0.000337
vn 0.002113 0.001080 -0.000337
vn 0.002113 0.001080 -0.000337
vn 0.002113 0.001080 -0.000337
vn 0.000123 0.002378 0.000275
vn 0.000123 0.002378 0.000275
vn 0.000123 0.002378 0.000275
vn 0.000123 0.002378 0.000275
vn -0.001876 0.001215 0.000868
vn -0.001876 0.001215 0.000868
vn -0.001876 0.001215 0.000868
vn -0.001876 0.001215 0.000868
vn -0.001978 -0.001013 0.000899
vn -0.001978 -0.001013 0.000899
vn -0.001978 -0.001013 0.000899
vn -0.001978 -0.001013 0.000899
vn -0.000121 -0.002368 0.000350
vn -0.000121 -0.002368 0.000350
vn -0.000121 -0.002368 0.000350
vn -0.000121 -0.002368 0.000350
vn 0.001996 -0.001293 -0.000301
vn 0.001996 -0.001293 -0.000301
vn 0.001996 -0.001293 -0.000301
vn 0.001996 -0.001293 -0.000301
vn 0.002365 0.000386 0.000052
vn 0.002365 0.000386 0.000052
vn 0.002365 0.000386 0.000052
vn 0.002365 0.000386 0.000052
vn 0.000845 0.002233 0.000216
vn 0.000845 0.002233 0.000216
vn 0.000845 0.002233 0.000216
vn 0.000845 0.002233 0.000216
vn -0.001489 0.001820 0.000464
vn -0.001489 0.001820 0.000464
vn -0.001489 0.001820 0.000464
vn -0.001489 0.001820 0.000464
vn -0.002302 -0.000378 0.000549
vn -0.002302 -0.000378 0.000549
vn -0.002302 -0.000378 0.000549
vn -0.002302 -0.000378 0.000549
vn -0.000836 -0.002212 0.000394
vn -0.000836 -0.002212 0.000394
vn -0.000836 -0.002212 0.000394
vn -0.000836 -0.002212 0.000394
vn 0.001514 -0.001852 0.000144
vn 0.001514 -0.001852 0.000144
vn 0.001514 -0.001852 0.000144
vn 0.001514 -0.001852 0.000144
usemtl Deciduous_treetop_3
f 1/1/1 2/2/2 3/3/3
f 4/4/4 5/5/5 6/6/6
f 5/7/7 7/8/8 8/9/9
f 9/10/10 8/11/11 2/12/12
f 10/13/13 11/14/14 12/15/15
f 3/16/16 2/17/17 13/18/18
f 14/19/19 6/20/20 15/21/21
f 14/22/22 1/23/23 10/24/24
f 8/25/25 16/26/26 2/27/27
f 16/28/28 13/29/29 2/30/30
f 10/31/31 17/32/32 14/33/33
f 14/34/34 4/35/35 6/36/36
f 10/37/37 18/38/38 11/39/39
f 1/40/40 3/41/41 10/42/42
f 14/43/43 15/44/44 1/45/45
f 1/46/46 9/47/47 2/48/48
f 11/49/49 5/50/50 12/51/51
f 5/52/52 11/53/53 7/54/54
f 6/55/55 5/56/56 8/57/57
f 6/58/58 8/59/59 15/60/60
f 18/61/61 13/62/62 11/63/63
f 7/64/64 11/65/65 13/66/66
f 12/67/67 5/68/68 4/69/69
f 17/70/70 4/71/71 14/72/72
f 10/42/42 3/41/41 18/73/73
f 3/74/74 13/75/75 18/76/76
f 8/77/77 7/78/78 16/79/79
f 7/80/80 13/81/81 16/82/82
f 1/45/45 15/44/44 9/83/83
f 15/84/84 8/85/85 9/86/86
f 10/87/87 12/88/88 17/89/89
f 17/90/90 12/91/91 4/92/92
usemtl Tree_trunk_material_II
f 19/93/93 20/94/94 21/95/95
f 22/96/96 21/95/95 20/94/94
f 21/97/97 22/98/98 23/99/99
f 24/100/100 23/99/99 22/98/98
f 23/101/101 24/102/102 25/103/103
f 26/104/104 25/103/103 24/102/102
f 25/105/105 26/106/106 27/107/107
f 27/107/107 28/108/108 25/105/105
f 27/109/109 29/110/110 28/111/111
f 30/112/112 28/111/111 29/110/110
f 29/113/113 20/114/114 30/115/115
f 19/116/116 30/115/115 20/114/114
f 21/117/117 31/118/118 19/119/119
f 32/120/120 19/119/119 31/118/118
f 23/121/121 33/122/122 21/123/123
f 31/124/124 21/123/123 33/122/122
f 25/125/125 34/126/126 23/127/127
f 33/128/128 23/127/127 34/126/126
f 28/129/129 35/130/130 25/131/131
f 34/132/132 25/131/131 35/130/130
f 28/133/133 30/134/134 36/135/135
f 36/135/135 35/136/136 28/133/133
f 30/137/137 19/138/138 32/139/139
f 32/139/139 36/140/140 30/137/137
