{
	"asset":{
		"version":"2.0",
		"generator":"Created using the official Cinema 4D glTF Exporter 1.000x290161"
	},
	"scenes":[{
		"nodes":[0,
		1]
	}],
	"nodes":[{
		"name":"Camera",
		"translation":[342.4366760253906,
		239.38648986816407,
		899.5451049804688],
		"rotation":[0.03203888610005379,
		-0.19468937814235688,
		-0.006362845655530691,
		-0.980320930480957],
		"scale":[1.0,
		1.0,
		1.0],
		"camera":0
	},
	{
		"name":"Null.1",
		"translation":[0.0,
		104.73178100585938,
		0.0],
		"rotation":[0.0,
		0.0,
		0.0,
		-1.0],
		"scale":[1.0,
		1.0,
		1.0],
		"children":[2,
		3,
		4,
		5,
		6,
		7,
		8,
		9,
		10,
		11]
	},
	{
		"name":"HAIR 01",
		"translation":[4.440892098500626e-16,
		148.07273864746095,
		0.0],
		"rotation":[0.0,
		0.0,
		0.0,
		-1.0],
		"scale":[1.0,
		1.0,
		1.0],
		"mesh":0
	},
	{
		"name":"HAND L",
		"translation":[66.75579071044922,
		-22.856889724731447,
		2.0440471172332765],
		"rotation":[0.6910675764083862,
		0.537179708480835,
		-0.48288601636886599,
		-0.02616536058485508],
		"scale":[1.0,
		-1.0,
		1.0],
		"mesh":1
	},
	{
		"name":"HAND R",
		"translation":[-66.75579071044922,
		-22.856889724731447,
		2.0440471172332765],
		"rotation":[0.537179708480835,
		0.6910675764083862,
		0.02616536058485508,
		0.48288601636886599],
		"scale":[1.0,
		1.0,
		1.0],
		"mesh":2
	},
	{
		"name":"FOOT L",
		"translation":[25.39153289794922,
		-91.9317855834961,
		0.0],
		"rotation":[0.0,
		-0.1736481785774231,
		0.0,
		-0.9848077297210693],
		"scale":[1.0,
		1.0,
		1.0],
		"mesh":3
	},
	{
		"name":"FOOT R",
		"translation":[-20.41996192932129,
		-91.9317855834961,
		0.0],
		"rotation":[0.0,
		-0.1736481785774231,
		0.0,
		0.9848077297210693],
		"scale":[1.0,
		1.0,
		1.0],
		"mesh":4
	},
	{
		"name":"BODY LOWER",
		"mesh":5
	},
	{
		"name":"BODY UPPER",
		"mesh":6
	},
	{
		"name":"Cube",
		"translation":[0.0,
		148.07273864746095,
		0.0],
		"rotation":[0.0,
		0.0,
		0.0,
		-1.0],
		"scale":[1.0,
		1.0,
		1.0],
		"mesh":7
	},
	{
		"name":"EYES",
		"translation":[-50.05646514892578,
		144.65087890625,
		76.78861236572266],
		"rotation":[0.0,
		-0.19403377175331117,
		0.0,
		0.9809948205947876],
		"scale":[1.0,
		1.0,
		0.6200000047683716],
		"mesh":8
	},
	{
		"name":"Cylinder",
		"translation":[-0.09811805933713913,
		103.8263168334961,
		86.54043579101563],
		"rotation":[0.0,
		0.0,
		0.0,
		-1.0],
		"scale":[1.0,
		1.0,
		1.0],
		"mesh":9
	}],
	"meshes":[{
		"primitives":[{
			"attributes":{
				"POSITION":1,
				"NORMAL":2,
				"TEXCOORD_0":3
			},
			"indices":0,
			"material":0
		}]
	},
	{
		"primitives":[{
			"attributes":{
				"POSITION":5,
				"NORMAL":6,
				"TEXCOORD_0":7
			},
			"indices":4,
			"material":1
		}]
	},
	{
		"primitives":[{
			"attributes":{
				"POSITION":9,
				"NORMAL":10,
				"TEXCOORD_0":11
			},
			"indices":8,
			"material":1
		}]
	},
	{
		"primitives":[{
			"attributes":{
				"POSITION":13,
				"NORMAL":14,
				"TEXCOORD_0":15
			},
			"indices":12,
			"material":2
		}]
	},
	{
		"primitives":[{
			"attributes":{
				"POSITION":17,
				"NORMAL":18,
				"TEXCOORD_0":19
			},
			"indices":16,
			"material":2
		}]
	},
	{
		"primitives":[{
			"attributes":{
				"POSITION":21,
				"NORMAL":22,
				"TEXCOORD_0":23
			},
			"indices":20,
			"material":3
		}]
	},
	{
		"primitives":[{
			"attributes":{
				"POSITION":25,
				"NORMAL":26,
				"TEXCOORD_0":27
			},
			"indices":24,
			"material":4
		}]
	},
	{
		"primitives":[{
			"attributes":{
				"POSITION":29,
				"NORMAL":30
			},
			"indices":28,
			"material":1
		}]
	},
	{
		"primitives":[{
			"attributes":{
				"POSITION":32,
				"NORMAL":33,
				"TEXCOORD_0":34
			},
			"indices":31,
			"material":5
		}]
	},
	{
		"primitives":[{
			"attributes":{
				"POSITION":36,
				"NORMAL":37,
				"TEXCOORD_0":38
			},
			"indices":35,
			"material":6
		}]
	}],
	"cameras":[{
		"type":"perspective",
		"perspective":{
			"znear":0.009999999776482582,
			"zfar":10000000000.0,
			"aspectRatio":1.7777777910232545,
			"yfov":0.5483348965644836
		}
	}],
	"accessors":[{
		"bufferView":0,
		"type":"SCALAR",
		"componentType":5123,
		"count":558,
		"byteOffset":0,
		"min":[0],
		"max":[555]
	},
	{
		"bufferView":1,
		"type":"VEC3",
		"componentType":5126,
		"count":556,
		"byteOffset":0,
		"min":[-96.26101684570313,
		-41.081214904785159,
		-94.97846984863281],
		"max":[99.84435272216797,
		123.98107147216797,
		87.41984558105469]
	},
	{
		"bufferView":1,
		"type":"VEC3",
		"componentType":5126,
		"count":556,
		"byteOffset":12,
		"min":[-0.9748687148094177,
		-0.9967585802078247,
		-0.9804834127426148],
		"max":[0.9948369264602661,
		0.9959896206855774,
		0.991582989692688]
	},
	{
		"bufferView":1,
		"type":"VEC2",
		"componentType":5126,
		"count":556,
		"byteOffset":24,
		"min":[0.0,
		0.0],
		"max":[1.0,
		1.0]
	},
	{
		"bufferView":2,
		"type":"SCALAR",
		"componentType":5123,
		"count":144,
		"byteOffset":0,
		"min":[0],
		"max":[63]
	},
	{
		"bufferView":3,
		"type":"VEC3",
		"componentType":5126,
		"count":64,
		"byteOffset":0,
		"min":[-13.100000381469727,
		-13.100000381469727,
		-7.079530239105225],
		"max":[13.100000381469727,
		13.100000381469727,
		7.079530239105225]
	},
	{
		"bufferView":3,
		"type":"VEC3",
		"componentType":5126,
		"count":64,
		"byteOffset":12,
		"min":[-0.8537980914115906,
		-0.8537980914115906,
		-1.0],
		"max":[0.8537980914115906,
		0.8537980914115906,
		1.0]
	},
	{
		"bufferView":3,
		"type":"VEC2",
		"componentType":5126,
		"count":64,
		"byteOffset":24,
		"min":[0.0,
		0.0],
		"max":[1.0,
		1.0]
	},
	{
		"bufferView":4,
		"type":"SCALAR",
		"componentType":5123,
		"count":144,
		"byteOffset":0,
		"min":[0],
		"max":[63]
	},
	{
		"bufferView":5,
		"type":"VEC3",
		"componentType":5126,
		"count":64,
		"byteOffset":0,
		"min":[-13.100000381469727,
		-13.100000381469727,
		-7.079530239105225],
		"max":[13.100000381469727,
		13.100000381469727,
		7.079530239105225]
	},
	{
		"bufferView":5,
		"type":"VEC3",
		"componentType":5126,
		"count":64,
		"byteOffset":12,
		"min":[-0.8537980914115906,
		-0.8537980914115906,
		-1.0],
		"max":[0.8537980914115906,
		0.8537980914115906,
		1.0]
	},
	{
		"bufferView":5,
		"type":"VEC2",
		"componentType":5126,
		"count":64,
		"byteOffset":24,
		"min":[0.0,
		0.0],
		"max":[1.0,
		1.0]
	},
	{
		"bufferView":6,
		"type":"SCALAR",
		"componentType":5123,
		"count":336,
		"byteOffset":0,
		"min":[0],
		"max":[106]
	},
	{
		"bufferView":7,
		"type":"VEC3",
		"componentType":5126,
		"count":107,
		"byteOffset":0,
		"min":[-11.793548583984375,
		-9.443448066711426,
		-24.219524383544923],
		"max":[11.793548583984375,
		11.245058059692383,
		25.220367431640626]
	},
	{
		"bufferView":7,
		"type":"VEC3",
		"componentType":5126,
		"count":107,
		"byteOffset":12,
		"min":[-0.9995632767677307,
		-1.0,
		-0.9881380200386047],
		"max":[0.9995632767677307,
		0.9999996423721314,
		0.9916235208511353]
	},
	{
		"bufferView":7,
		"type":"VEC2",
		"componentType":5126,
		"count":107,
		"byteOffset":24,
		"min":[0.0,
		0.0],
		"max":[1.0,
		1.0]
	},
	{
		"bufferView":8,
		"type":"SCALAR",
		"componentType":5123,
		"count":336,
		"byteOffset":0,
		"min":[0],
		"max":[106]
	},
	{
		"bufferView":9,
		"type":"VEC3",
		"componentType":5126,
		"count":107,
		"byteOffset":0,
		"min":[-11.793548583984375,
		-9.443448066711426,
		-24.219524383544923],
		"max":[11.793548583984375,
		11.245058059692383,
		25.220367431640626]
	},
	{
		"bufferView":9,
		"type":"VEC3",
		"componentType":5126,
		"count":107,
		"byteOffset":12,
		"min":[-0.9995632767677307,
		-1.0,
		-0.9881380200386047],
		"max":[0.9995632767677307,
		0.9999996423721314,
		0.9916235208511353]
	},
	{
		"bufferView":9,
		"type":"VEC2",
		"componentType":5126,
		"count":107,
		"byteOffset":24,
		"min":[0.0,
		0.0],
		"max":[1.0,
		1.0]
	},
	{
		"bufferView":10,
		"type":"SCALAR",
		"componentType":5123,
		"count":288,
		"byteOffset":0,
		"min":[0],
		"max":[81]
	},
	{
		"bufferView":11,
		"type":"VEC3",
		"componentType":5126,
		"count":82,
		"byteOffset":0,
		"min":[-45.2325439453125,
		-60.74126434326172,
		-28.57976722717285],
		"max":[45.2325439453125,
		-17.34992218017578,
		28.57976722717285]
	},
	{
		"bufferView":11,
		"type":"VEC3",
		"componentType":5126,
		"count":82,
		"byteOffset":12,
		"min":[-0.999955952167511,
		-1.0,
		-0.9999822378158569],
		"max":[0.999955952167511,
		0.009390350431203843,
		0.9999822378158569]
	},
	{
		"bufferView":11,
		"type":"VEC2",
		"componentType":5126,
		"count":82,
		"byteOffset":24,
		"min":[0.0,
		0.0],
		"max":[1.0,
		1.0]
	},
	{
		"bufferView":12,
		"type":"SCALAR",
		"componentType":5123,
		"count":672,
		"byteOffset":0,
		"min":[0],
		"max":[161]
	},
	{
		"bufferView":13,
		"type":"VEC3",
		"componentType":5126,
		"count":162,
		"byteOffset":0,
		"min":[-44.857147216796878,
		-17.928874969482423,
		-28.342575073242189],
		"max":[44.857147216796878,
		42.49708557128906,
		28.342575073242189]
	},
	{
		"bufferView":13,
		"type":"VEC3",
		"componentType":5126,
		"count":162,
		"byteOffset":12,
		"min":[-0.9733291268348694,
		0.14729975163936616,
		-0.9890918731689453],
		"max":[0.9733291268348694,
		1.0,
		0.9890918731689453]
	},
	{
		"bufferView":13,
		"type":"VEC2",
		"componentType":5126,
		"count":162,
		"byteOffset":24,
		"min":[0.0,
		0.0],
		"max":[1.0,
		1.0]
	},
	{
		"bufferView":14,
		"type":"SCALAR",
		"componentType":5123,
		"count":1356,
		"byteOffset":0,
		"min":[0],
		"max":[259]
	},
	{
		"bufferView":15,
		"type":"VEC3",
		"componentType":5126,
		"count":260,
		"byteOffset":0,
		"min":[-109.59424591064453,
		-106.99447631835938,
		-87.62366485595703],
		"max":[109.68140411376953,
		114.7506103515625,
		88.2385482788086]
	},
	{
		"bufferView":15,
		"type":"VEC3",
		"componentType":5126,
		"count":260,
		"byteOffset":12,
		"min":[-0.9978381991386414,
		-0.9985216856002808,
		-0.9999110102653503],
		"max":[0.9972712993621826,
		0.9983445405960083,
		0.9999116659164429]
	},
	{
		"bufferView":16,
		"type":"SCALAR",
		"componentType":5123,
		"count":144,
		"byteOffset":0,
		"min":[0],
		"max":[67]
	},
	{
		"bufferView":17,
		"type":"VEC3",
		"componentType":5126,
		"count":68,
		"byteOffset":0,
		"min":[-3.8732640743255617,
		-3.8732640743255617,
		-65.86968231201172],
		"max":[95.715087890625,
		3.8732640743255617,
		3.8732640743255617]
	},
	{
		"bufferView":17,
		"type":"VEC3",
		"componentType":5126,
		"count":68,
		"byteOffset":12,
		"min":[-0.9307554960250855,
		-0.9307554960250855,
		-0.16132165491580964],
		"max":[0.9935697317123413,
		0.942512035369873,
		1.0]
	},
	{
		"bufferView":17,
		"type":"VEC2",
		"componentType":5126,
		"count":68,
		"byteOffset":24,
		"min":[0.0,
		0.0],
		"max":[1.0,
		1.0]
	},
	{
		"bufferView":18,
		"type":"SCALAR",
		"componentType":5123,
		"count":180,
		"byteOffset":0,
		"min":[0],
		"max":[71]
	},
	{
		"bufferView":19,
		"type":"VEC3",
		"componentType":5126,
		"count":72,
		"byteOffset":0,
		"min":[-24.87371253967285,
		-0.9378117918968201,
		-3.270470142364502],
		"max":[24.87701988220215,
		2.588122844696045,
		0.7725600004196167]
	},
	{
		"bufferView":19,
		"type":"VEC3",
		"componentType":5126,
		"count":72,
		"byteOffset":12,
		"min":[-0.16662217676639558,
		-0.8716201782226563,
		-0.9996826648712158],
		"max":[0.16733567416667939,
		0.871560275554657,
		0.9996860027313232]
	},
	{
		"bufferView":19,
		"type":"VEC2",
		"componentType":5126,
		"count":72,
		"byteOffset":24,
		"min":[0.0,
		0.0],
		"max":[1.0,
		1.0]
	}],
	"bufferViews":[{
		"buffer":0,
		"byteOffset":0,
		"byteLength":1116,
		"target":34963
	},
	{
		"buffer":0,
		"byteOffset":1116,
		"byteLength":17792,
		"target":34962,
		"byteStride":32
	},
	{
		"buffer":1,
		"byteOffset":0,
		"byteLength":288,
		"target":34963
	},
	{
		"buffer":1,
		"byteOffset":288,
		"byteLength":2048,
		"target":34962,
		"byteStride":32
	},
	{
		"buffer":2,
		"byteOffset":0,
		"byteLength":288,
		"target":34963
	},
	{
		"buffer":2,
		"byteOffset":288,
		"byteLength":2048,
		"target":34962,
		"byteStride":32
	},
	{
		"buffer":3,
		"byteOffset":0,
		"byteLength":672,
		"target":34963
	},
	{
		"buffer":3,
		"byteOffset":672,
		"byteLength":3424,
		"target":34962,
		"byteStride":32
	},
	{
		"buffer":4,
		"byteOffset":0,
		"byteLength":672,
		"target":34963
	},
	{
		"buffer":4,
		"byteOffset":672,
		"byteLength":3424,
		"target":34962,
		"byteStride":32
	},
	{
		"buffer":5,
		"byteOffset":0,
		"byteLength":576,
		"target":34963
	},
	{
		"buffer":5,
		"byteOffset":576,
		"byteLength":2624,
		"target":34962,
		"byteStride":32
	},
	{
		"buffer":6,
		"byteOffset":0,
		"byteLength":1344,
		"target":34963
	},
	{
		"buffer":6,
		"byteOffset":1344,
		"byteLength":5184,
		"target":34962,
		"byteStride":32
	},
	{
		"buffer":7,
		"byteOffset":0,
		"byteLength":2712,
		"target":34963
	},
	{
		"buffer":7,
		"byteOffset":2712,
		"byteLength":6240,
		"target":34962,
		"byteStride":24
	},
	{
		"buffer":8,
		"byteOffset":0,
		"byteLength":288,
		"target":34963
	},
	{
		"buffer":8,
		"byteOffset":288,
		"byteLength":2176,
		"target":34962,
		"byteStride":32
	},
	{
		"buffer":9,
		"byteOffset":0,
		"byteLength":360,
		"target":34963
	},
	{
		"buffer":9,
		"byteOffset":360,
		"byteLength":2304,
		"target":34962,
		"byteStride":32
	}],
	"buffers":[{
		"uri":"data:application/octet-stream;base64,",
		"byteLength":18908
	},
	{
		"uri":"data:application/octet-stream;base64,",
		"byteLength":2336
	},
	{
		"uri":"data:application/octet-stream;base64,",
		"byteLength":2336
	},
	{
		"uri":"data:application/octet-stream;base64,",
		"byteLength":4096
	},
	{
		"uri":"data:application/octet-stream;base64,",
		"byteLength":4096
	},
	{
		"uri":"data:application/octet-stream;base64,",
		"byteLength":3200
	},
	{
		"uri":"data:application/octet-stream;base64,",
		"byteLength":6528
	},
	{
		"uri":"data:application/octet-stream;base64,",
		"byteLength":8952
	},
	{
		"uri":"data:application/octet-stream;base64,",
		"byteLength":2464
	},
	{
		"uri":"data:application/octet-stream;base64,",
		"byteLength":2664
	}],
	"materials":[{
		"pbrMetallicRoughness":{
			"baseColorFactor":[0.37,
			0.24974999999999995,
			0.12949999999999996,
			1.0],
			"metallicFactor":1.0,
			"roughnessFactor":0.71
		},
		"emissiveFactor":[0.0,
		0.0,
		0.0],
		"alphaMode":"OPAQUE",
		"doubleSided":true,
		"name":"hair"
	},
	{
		"pbrMetallicRoughness":{
			"baseColorFactor":[0.8200000000000001,
			0.7755833333333334,
			0.615,
			1.0],
			"metallicFactor":1.0,
			"roughnessFactor":1.0
		},
		"emissiveFactor":[0.0,
		0.0,
		0.0],
		"alphaMode":"OPAQUE",
		"doubleSided":true,
		"name":"SKIN"
	},
	{
		"pbrMetallicRoughness":{
			"baseColorFactor":[0.67,
			0.67,
			0.67,
			1.0],
			"metallicFactor":1.0,
			"roughnessFactor":1.0
		},
		"emissiveFactor":[0.0,
		0.0,
		0.0],
		"alphaMode":"OPAQUE",
		"doubleSided":true,
		"name":"trainers"
	},
	{
		"pbrMetallicRoughness":{
			"baseColorFactor":[0.15909999999999997,
			0.22236999999999997,
			0.37,
			1.0],
			"metallicFactor":1.0,
			"roughnessFactor":0.71
		},
		"emissiveFactor":[0.0,
		0.0,
		0.0],
		"alphaMode":"OPAQUE",
		"doubleSided":true,
		"name":"BLUE JEANS"
	},
	{
		"pbrMetallicRoughness":{
			"baseColorFactor":[0.46,
			0.15639999999999999,
			0.15639999999999999,
			1.0],
			"metallicFactor":1.0,
			"roughnessFactor":0.71
		},
		"emissiveFactor":[0.0,
		0.0,
		0.0],
		"alphaMode":"OPAQUE",
		"doubleSided":true,
		"name":"RED TOP"
	},
	{
		"pbrMetallicRoughness":{
			"baseColorFactor":[0.0,
			0.0,
			0.0,
			1.0],
			"metallicFactor":1.0,
			"roughnessFactor":0.23
		},
		"emissiveFactor":[0.0,
		0.0,
		0.0],
		"alphaMode":"OPAQUE",
		"doubleSided":true,
		"name":"eyes"
	},
	{
		"pbrMetallicRoughness":{
			"baseColorFactor":[0.19,
			0.17575000000000003,
			0.1615,
			1.0],
			"metallicFactor":1.0,
			"roughnessFactor":0.71
		},
		"emissiveFactor":[0.0,
		0.0,
		0.0],
		"alphaMode":"OPAQUE",
		"doubleSided":true,
		"name":"mouth"
	}]
}